<svg width="40" height="58" viewBox="0 0 40 58" fill="none" xmlns="http://www.w3.org/2000/svg">
<path fill-rule="evenodd" clip-rule="evenodd" d="M19.9327 18.1356C30.9764 18.1356 40 27.0049 40 37.8598C40 48.5823 30.9764 57.4515 19.9327 57.4515C8.88889 57.4515 0 48.5823 0 37.8598C0 27.0049 8.88889 18.1356 19.9327 18.1356ZM4.98317 21.445C4.98317 21.445 6.19529 20.386 7.27273 19.5918C8.35017 18.7975 9.56229 18.1356 9.56229 18.1356C9.56229 18.1356 9.69697 8.60449 9.56229 7.14835C9.56229 5.82458 10.7744 4.63319 12.2559 4.63319C13.8721 4.63319 26.3973 4.63319 27.6094 4.63319C28.9562 4.63319 30.303 5.82458 30.303 7.4131C30.303 9.00162 30.303 11.6492 30.303 11.6492L35.0168 11.7815C35.0168 11.7815 35.0168 10.0606 35.0168 7.14835C35.0168 4.10368 32.4579 0 27.6094 0C22.6263 0 17.9125 0 12.7946 0C7.54209 0 4.84848 3.83893 4.84848 7.28072C4.84848 10.8549 4.98317 21.445 4.98317 21.445ZM19.9327 26.0782C26.532 26.0782 31.9192 31.3733 31.9192 37.8598C31.9192 44.2138 26.532 49.5089 19.9327 49.5089C13.468 49.5089 8.08081 44.2138 8.08081 37.8598C8.08081 31.3733 13.468 26.0782 19.9327 26.0782ZM19.9327 31.2409C22.2222 31.2409 24.1077 32.9618 24.1077 35.2122C24.1077 36.536 23.2997 37.8598 22.3569 38.5216V44.3462H17.6431V38.5216C16.5657 37.8598 15.8923 36.536 15.8923 35.2122C15.8923 32.9618 17.7778 31.2409 19.9327 31.2409ZM19.9327 22.7688C28.4175 22.7688 35.2862 29.52 35.2862 37.8598C35.2862 46.0671 28.4175 52.8183 19.9327 52.8183C11.4478 52.8183 4.57912 46.0671 4.57912 37.8598C4.57912 29.52 11.4478 22.7688 19.9327 22.7688Z" fill="#3BBBBC"/>
</svg>
