<svg width="28" height="39" viewBox="0 0 28 39" fill="none" xmlns="http://www.w3.org/2000/svg">
<path fill-rule="evenodd" clip-rule="evenodd" d="M13.9549 12.7571C21.3175 12.7571 27.3332 18.6699 27.3332 25.9065C27.3332 33.0548 21.3175 38.9677 13.9549 38.9677C6.59243 38.9677 0.666504 33.0548 0.666504 25.9065C0.666504 18.6699 6.59243 12.7571 13.9549 12.7571ZM3.98861 14.9634C3.98861 14.9634 4.79669 14.2573 5.51499 13.7278C6.23328 13.1983 7.04136 12.7571 7.04136 12.7571C7.04136 12.7571 7.13115 6.40298 7.04136 5.43222C7.04136 4.54971 7.84944 3.75545 8.8371 3.75545C9.91454 3.75545 18.2647 3.75545 19.0728 3.75545C19.9707 3.75545 20.8685 4.54971 20.8685 5.60872C20.8685 6.66774 20.8685 8.43276 20.8685 8.43276L24.0111 8.52101C24.0111 8.52101 24.0111 7.37375 24.0111 5.43222C24.0111 3.40244 22.3051 0.666656 19.0728 0.666656C15.7507 0.666656 12.6081 0.666656 9.19625 0.666656C5.69456 0.666656 3.89883 3.22594 3.89883 5.52047C3.89883 7.90325 3.98861 14.9634 3.98861 14.9634ZM13.9549 18.0521C18.3545 18.0521 21.946 21.5822 21.946 25.9065C21.946 30.1426 18.3545 33.6726 13.9549 33.6726C9.64518 33.6726 6.05371 30.1426 6.05371 25.9065C6.05371 21.5822 9.64518 18.0521 13.9549 18.0521ZM13.9549 21.4939C15.4813 21.4939 16.7383 22.6412 16.7383 24.1415C16.7383 25.024 16.1996 25.9065 15.5711 26.3478V30.2308H12.4286V26.3478C11.7103 25.9065 11.2613 25.024 11.2613 24.1415C11.2613 22.6412 12.5184 21.4939 13.9549 21.4939ZM13.9549 15.8459C19.6115 15.8459 24.1906 20.3467 24.1906 25.9065C24.1906 31.3781 19.6115 35.8789 13.9549 35.8789C8.29838 35.8789 3.71925 31.3781 3.71925 25.9065C3.71925 20.3467 8.29838 15.8459 13.9549 15.8459Z" fill="#3BBBBC"/>
</svg>
