<svg width="40" height="60" viewBox="0 0 40 60" fill="none" xmlns="http://www.w3.org/2000/svg">
<path d="M1.65354 15.9634C1.67235 15.606 1.77354 15.5288 1.94269 15.3996C1.96663 15.3813 1.99192 15.362 2.01854 15.3407L12.0882 10.5313L2.08295 5.42132C1.78236 5.24956 1.73942 5.09926 1.73942 4.90603V2.82338C1.73942 2.5872 1.80383 2.39397 2.01854 2.26515C2.23324 2.13632 6.14089 0.1825 6.33413 0.0966176C6.52736 0.0107353 6.78501 0.0107353 6.95677 0.0966176C7.09418 0.165323 15.7025 4.43367 19.9894 6.55926C24.169 4.44799 32.5755 0.199676 32.7644 0.0966176C33.0006 -0.0322059 33.3226 -0.0322059 33.5588 0.0966176C33.795 0.225441 37.445 2.05044 37.7885 2.22221C38.1321 2.39397 38.1321 2.54426 38.1321 2.78044V4.79868C38.1321 5.15946 37.9852 5.24754 37.7745 5.37394C37.7745 5.37394 29.5603 9.64094 27.8047 10.5528L37.9603 15.4266C38.2179 15.5554 38.2394 15.7057 38.2394 15.9204V18.0675C38.2394 18.4325 38.0676 18.5398 37.8744 18.6472C36.4236 19.4532 34.8972 20.0884 33.4515 20.9016C33.1467 21.073 32.9938 21.0078 32.7084 20.886C32.6721 20.8705 32.6338 20.8541 32.5926 20.8372C32.3007 20.717 24.0688 16.5216 19.9894 14.439C15.9028 16.5073 7.63954 20.6826 7.27883 20.8372C6.84645 21.0225 6.6905 20.9511 6.47015 20.8503C6.46482 20.8479 6.45945 20.8454 6.45404 20.8429C6.44988 20.841 6.44569 20.8391 6.44148 20.8372C4.34907 19.8861 4.68439 20.0338 1.95413 18.6687C1.65354 18.5184 1.65354 18.3466 1.65354 18.1748C1.65354 18.1404 1.65268 18.047 1.65147 17.9167C1.64665 17.3973 1.63638 16.2894 1.65354 15.9634Z" fill="#243947"/>
<path d="M1.05236 28.5666C0.694521 28.8386 -0.0168709 29.6487 0.000305504 30.7137C0.0180739 31.8153 0.0064342 47.9596 0.00189101 54.2611V54.2612L0.00189048 54.2617C0.000944399 55.5744 0.000305855 56.4599 0.000305504 56.6931C0.000304103 58.0457 1.07383 59.4628 2.49089 59.4842C3.90795 59.5057 36.1353 59.5057 37.4665 59.4842C38.7976 59.4628 40 58.3248 40 56.9078V30.6922C40 29.7475 39.3988 28.8672 39.0982 28.5451C39.0982 28.5451 38.4274 27.944 37.3102 27.944C36.1931 27.944 2.74854 27.944 2.74854 27.944C1.88243 27.944 1.05236 28.5666 1.05236 28.5666Z" fill="#243947"/>
<path fill-rule="evenodd" clip-rule="evenodd" d="M6.02695 6.33824C6.38046 6.37052 6.64087 6.68326 6.60859 7.03678L4.68034 28.1557C4.64806 28.5092 4.33532 28.7696 3.98181 28.7374C3.6283 28.7051 3.36789 28.3924 3.40016 28.0388L5.32842 6.91989C5.36069 6.56638 5.67344 6.30597 6.02695 6.33824Z" fill="#243947"/>
<path fill-rule="evenodd" clip-rule="evenodd" d="M5.56222 18.9603C5.89226 19.091 6.05385 19.4645 5.92314 19.7946L2.25028 29.0685C2.11957 29.3986 1.74606 29.5602 1.41602 29.4295C1.08598 29.2988 0.924387 28.9252 1.0551 28.5952L4.72796 19.3212C4.85867 18.9912 5.23218 18.8296 5.56222 18.9603Z" fill="#243947"/>
<path fill-rule="evenodd" clip-rule="evenodd" d="M34.1913 6.33824C33.8378 6.37052 33.5774 6.68326 33.6097 7.03678L35.5379 28.1557C35.5702 28.5092 35.8829 28.7696 36.2365 28.7374C36.59 28.7051 36.8504 28.3924 36.8181 28.0388L34.8898 6.91989C34.8576 6.56638 34.5448 6.30597 34.1913 6.33824Z" fill="#243947"/>
<path fill-rule="evenodd" clip-rule="evenodd" d="M34.6556 18.9603C34.3255 19.091 34.1639 19.4645 34.2946 19.7946L37.9675 29.0685C38.0982 29.3986 38.4717 29.5602 38.8018 29.4295C39.1318 29.2988 39.2934 28.9252 39.1627 28.5952L35.4898 19.3212C35.3591 18.9912 34.9856 18.8296 34.6556 18.9603Z" fill="#243947"/>
<path d="M6.69914 1.14815L3.56444 2.62962C7.56512 4.61923 15.6352 8.64138 15.91 8.81315C16.2536 9.02785 16.1462 9.67197 15.8671 9.80079C15.6438 9.90385 7.55797 13.9947 3.54297 16.0273L6.67767 17.5946C10.9002 15.4833 19.3926 11.2307 19.5815 11.1105C19.8177 10.9602 20.1397 11.0031 20.3544 11.1105C20.5262 11.1964 28.9713 15.4977 33.1724 17.6376L36.3715 16.0487C32.4782 14.0878 24.5927 10.1143 24.1977 9.90815C23.7038 9.6505 23.7683 9.04932 24.1977 8.83462C24.5412 8.66285 32.5283 4.68364 36.4788 2.7155L33.1724 1.12668C29.0142 3.25227 20.6378 7.5335 20.3974 7.65373C20.0968 7.80403 19.8821 7.76109 19.6674 7.65373C19.4956 7.56785 10.9503 3.28089 6.69914 1.14815Z" fill="#01D8A2"/>
<path d="M2.7915 4.66972V3.59619L14.3427 9.35031L13.3532 9.90854L2.7915 4.66972Z" fill="#01D8A2"/>
<path d="M37.187 4.62669V3.55316L25.6358 9.30728L26.6253 9.86551L37.187 4.62669Z" fill="#0AAB82"/>
<path d="M2.83447 17.9388V16.9511L6.11947 18.6473V19.6135L2.83447 17.9388Z" fill="#00D8A2"/>
<path d="M7.21484 19.6133V18.6686L19.4745 12.4636V13.4942L7.21484 19.6133Z" fill="#0AAB82"/>
<path d="M20.5479 13.4722V12.4416L32.6573 18.5822V19.6343L20.5479 13.4722Z" fill="#02D8A4"/>
<path d="M33.7305 19.6348V18.6042L37.1443 16.8651V17.8956L33.7305 19.6348Z" fill="#0AAB82"/>
<path d="M0.967285 56.8218L0.967285 33.7839L39.0346 33.8053V56.8003C39.0346 57.5947 38.4549 58.5609 37.5532 58.5395C36.6514 58.518 3.41493 58.5395 2.59905 58.5395C1.78317 58.5395 0.967285 57.7665 0.967285 56.8218Z" fill="white"/>
<path fill-rule="evenodd" clip-rule="evenodd" d="M33.4299 46.6875L34.1384 47.074C33.9738 47.3817 33.417 47.9972 32.5067 47.9972C31.3687 47.9972 30.7031 47.2243 30.7031 46.0434C30.7031 44.8625 31.6049 44.2828 32.4637 44.2828C33.3225 44.2828 34.3102 44.8625 34.2243 46.2366H31.5405C31.5619 46.5515 31.7852 47.1813 32.5067 47.1813C33.1937 47.1813 33.4299 46.6875 33.4299 46.6875ZM31.5834 45.6569H33.3225C33.3011 45.4494 33.0992 45.0343 32.4637 45.0343C31.8282 45.0343 31.612 45.4494 31.5834 45.6569Z" fill="#243947"/>
<path d="M35.7709 47.8684H34.8691V44.3687H35.685V44.9055C35.821 44.6979 36.2003 44.2828 36.6297 44.2828C37.0591 44.2828 37.2667 44.383 37.3168 44.4331L36.9733 45.1416C36.8945 45.1202 36.6641 45.0901 36.3721 45.1416C36.0071 45.206 35.7709 45.5925 35.7709 45.8502V47.8684Z" fill="#243947"/>
<path fill-rule="evenodd" clip-rule="evenodd" d="M29.4372 46.6875L30.1457 47.074C29.9811 47.3817 29.4243 47.9972 28.514 47.9972C27.376 47.9972 26.7104 47.2243 26.7104 46.0434C26.7104 44.8625 27.6122 44.2828 28.471 44.2828C29.3299 44.2828 30.3175 44.8625 30.2316 46.2366H27.5478C27.5693 46.5515 27.7926 47.1813 28.514 47.1813C29.201 47.1813 29.4372 46.6875 29.4372 46.6875ZM27.5907 45.6569H29.3299C29.3084 45.4494 29.1066 45.0343 28.471 45.0343C27.8355 45.0343 27.6194 45.4494 27.5907 45.6569Z" fill="#243947"/>
<path d="M23.8979 45.142V44.3906H24.4777V43.2956H25.3579V44.3906H26.2382V45.142H25.3579V46.6235C25.3579 46.967 25.6156 47.1388 25.7874 47.1388C25.9248 47.1388 26.0736 47.0959 26.1309 47.0744L26.3241 47.8688C26.1309 47.9976 25.6213 48.0675 25.2506 47.9547C24.7568 47.8044 24.4777 47.4179 24.4777 46.8167V45.142H23.8979Z" fill="#243947"/>
<path fill-rule="evenodd" clip-rule="evenodd" d="M22.6735 46.6875L23.3821 47.074C23.2175 47.3817 22.6607 47.9972 21.7503 47.9972C20.6124 47.9972 19.9468 47.2243 19.9468 46.0434C19.9468 44.8625 20.8485 44.2828 21.7074 44.2828C22.5662 44.2828 23.5538 44.8625 23.468 46.2366H20.7841C20.8056 46.5515 21.0289 47.1813 21.7503 47.1813C22.4374 47.1813 22.6735 46.6875 22.6735 46.6875ZM20.8271 45.6569H22.5662C22.5447 45.4494 22.3429 45.0343 21.7074 45.0343C21.0718 45.0343 20.8557 45.4494 20.8271 45.6569Z" fill="#243947"/>
<path fill-rule="evenodd" clip-rule="evenodd" d="M15.8032 49.4142H16.6835V47.4389C16.7909 47.6107 17.0915 47.9972 17.7785 47.9972C18.487 47.9972 19.4318 47.4175 19.4318 46.0863C19.4318 44.7551 18.53 44.2613 17.7785 44.2613C17.1773 44.2613 16.7694 44.5834 16.6406 44.7981V44.3686H15.8032V49.4142ZM16.662 46.1078C16.662 46.6016 16.9412 47.1383 17.6282 47.1383C18.3153 47.1383 18.5085 46.5372 18.5085 46.1292C18.5085 45.7213 18.2723 45.1201 17.6282 45.1201C16.9841 45.1201 16.662 45.571 16.662 46.1078Z" fill="#243947"/>
<path fill-rule="evenodd" clip-rule="evenodd" d="M11.5093 49.4142H12.3896V47.4389C12.4969 47.6107 12.7975 47.9972 13.4846 47.9972C14.1931 47.9972 15.1378 47.4175 15.1378 46.0863C15.1378 44.7551 14.236 44.2613 13.4846 44.2613C12.8834 44.2613 12.4755 44.5834 12.3466 44.7981V44.3686H11.5093V49.4142ZM12.3681 46.1078C12.3681 46.6016 12.6472 47.1383 13.3343 47.1383C14.0213 47.1383 14.2146 46.5372 14.2146 46.1292C14.2146 45.7213 13.9784 45.1201 13.3343 45.1201C12.6902 45.1201 12.3681 45.571 12.3681 46.1078Z" fill="#243947"/>
<path d="M8.24503 44.3478H7.34326V46.7096C7.34326 47.547 7.92297 48.0193 8.69591 48.0193C9.31426 48.0193 9.68356 47.547 9.79091 47.3108V47.869H10.6068V44.3478H9.7265V46.3661C9.59767 46.8384 9.27561 47.139 8.91061 47.139C8.54561 47.139 8.24503 46.9028 8.24503 46.452V44.3478Z" fill="#243947"/>
<path fill-rule="evenodd" clip-rule="evenodd" d="M3.3501 47.8685V42.8015H5.36833C6.03392 42.8015 6.87127 43.3167 6.87127 44.3688C6.87127 45.4209 6.03392 45.9791 5.36833 45.9791H4.2948V47.8685H3.3501ZM4.31627 45.0773V43.7032H5.32539C5.73333 43.7032 5.92657 43.9823 5.92657 44.3903C5.92657 44.7982 5.71186 45.0773 5.32539 45.0773H4.31627Z" fill="#243947"/>
<path d="M0.967285 30.4132L0.967285 32.9253L39.0561 32.9038V30.4132C39.0561 29.8335 38.4335 28.8888 37.5532 28.8888C36.6729 28.8888 3.41493 28.9103 2.57758 28.8888C1.74023 28.8673 0.967285 29.6403 0.967285 30.4132Z" fill="#DFDEDF"/>
<path d="M4.0802 30.9281C4.0802 31.2957 3.78221 31.5937 3.41461 31.5937C3.04702 31.5937 2.74902 31.2957 2.74902 30.9281C2.74902 30.5605 3.04702 30.2625 3.41461 30.2625C3.78221 30.2625 4.0802 30.5605 4.0802 30.9281Z" fill="#243947"/>
<path d="M8.4602 30.9281C8.4602 31.2957 8.1622 31.5937 7.79461 31.5937C7.42702 31.5937 7.12902 31.2957 7.12902 30.9281C7.12902 30.5605 7.42702 30.2625 7.79461 30.2625C8.1622 30.2625 8.4602 30.5605 8.4602 30.9281Z" fill="#243947"/>
<path d="M6.2702 30.9281C6.2702 31.2957 5.9722 31.5937 5.60461 31.5937C5.23702 31.5937 4.93902 31.2957 4.93902 30.9281C4.93902 30.5605 5.23702 30.2625 5.60461 30.2625C5.9722 30.2625 6.2702 30.5605 6.2702 30.9281Z" fill="#243947"/>
</svg>
