<svg width="28" height="40" viewBox="0 0 28 40" fill="none" xmlns="http://www.w3.org/2000/svg">
<path d="M1.76887 10.6423C1.7814 10.404 1.84887 10.3525 1.96163 10.2664C1.97759 10.2542 1.99445 10.2414 2.0122 10.2272L8.72533 7.02088L2.05514 3.61421C1.85475 3.4997 1.82612 3.39951 1.82612 3.27069V1.88225C1.82612 1.7248 1.86906 1.59598 2.0122 1.5101C2.15533 1.42422 4.76043 0.121667 4.88925 0.0644117C5.01808 0.00715687 5.18984 0.00715687 5.30435 0.0644117C5.39596 0.110216 11.1348 2.95578 13.9928 4.37284C16.7792 2.96533 22.3835 0.133118 22.5094 0.0644117C22.6669 -0.0214706 22.8816 -0.0214706 23.0391 0.0644117C23.1965 0.150294 25.6298 1.36696 25.8589 1.48147C26.0879 1.59598 26.0879 1.69618 26.0879 1.85363V3.19912C26.0879 3.43964 25.99 3.49836 25.8495 3.58263C25.8495 3.58263 20.3734 6.42729 19.203 7.03519L25.9734 10.2844C26.1451 10.3703 26.1594 10.4705 26.1594 10.6136V12.045C26.1594 12.2883 26.0449 12.3599 25.9161 12.4315C24.9489 12.9688 23.9313 13.3923 22.9675 13.9344C22.7643 14.0487 22.6624 14.0052 22.4721 13.924C22.4479 13.9137 22.4223 13.9028 22.3949 13.8915C22.2003 13.8113 16.7124 11.0144 13.9928 9.62598C11.2684 11.0049 5.75953 13.7884 5.51906 13.8915C5.23081 14.015 5.12684 13.9674 4.97994 13.9002C4.97638 13.8986 4.9728 13.8969 4.96919 13.8953C4.96642 13.894 4.96363 13.8927 4.96082 13.8915C3.56588 13.2574 3.78943 13.3559 1.96926 12.4458C1.76886 12.3456 1.76887 12.2311 1.76887 12.1166C1.76887 12.0936 1.76829 12.0313 1.76748 11.9444C1.76427 11.5982 1.75743 10.8596 1.76887 10.6423Z" fill="#243947"/>
<path d="M1.36808 19.0444C1.12952 19.2257 0.655257 19.7658 0.666708 20.4758C0.678553 21.2102 0.670793 31.9731 0.667765 36.1741V36.1742L0.667764 36.1744C0.667134 37.0496 0.666708 37.6399 0.666708 37.7954C0.666707 38.6971 1.38239 39.6418 2.3271 39.6562C3.2718 39.6705 24.7567 39.6705 25.6441 39.6562C26.5316 39.6418 27.3332 38.8832 27.3332 37.9385V20.4615C27.3332 19.8317 26.9324 19.2448 26.732 19.0301C26.732 19.0301 26.2848 18.6293 25.54 18.6293C24.7952 18.6293 2.49886 18.6293 2.49886 18.6293C1.92146 18.6293 1.36808 19.0444 1.36808 19.0444Z" fill="#243947"/>
<path fill-rule="evenodd" clip-rule="evenodd" d="M4.68463 4.2255C4.92031 4.24701 5.09391 4.45551 5.0724 4.69118L3.78689 18.7705C3.76538 19.0062 3.55688 19.1798 3.32121 19.1582C3.08553 19.1367 2.91193 18.9282 2.93344 18.6926L4.21894 4.61326C4.24046 4.37759 4.44896 4.20398 4.68463 4.2255Z" fill="#243947"/>
<path fill-rule="evenodd" clip-rule="evenodd" d="M4.37481 12.6402C4.59484 12.7273 4.70257 12.9764 4.61543 13.1964L2.16685 19.379C2.07971 19.5991 1.83071 19.7068 1.61068 19.6196C1.39065 19.5325 1.28292 19.2835 1.37006 19.0635L3.81864 12.8808C3.90578 12.6608 4.15479 12.5531 4.37481 12.6402Z" fill="#243947"/>
<path fill-rule="evenodd" clip-rule="evenodd" d="M23.4604 4.2255C23.2247 4.24701 23.0511 4.45551 23.0726 4.69118L24.3581 18.7705C24.3796 19.0062 24.5881 19.1798 24.8238 19.1582C25.0595 19.1367 25.2331 18.9282 25.2116 18.6926L23.9261 4.61326C23.9046 4.37759 23.6961 4.20398 23.4604 4.2255Z" fill="#243947"/>
<path fill-rule="evenodd" clip-rule="evenodd" d="M23.7702 12.6402C23.5502 12.7273 23.4425 12.9764 23.5296 13.1964L25.9782 19.379C26.0653 19.5991 26.3143 19.7068 26.5343 19.6196C26.7544 19.5325 26.8621 19.2835 26.775 19.0635L24.3264 12.8808C24.2392 12.6608 23.9902 12.5531 23.7702 12.6402Z" fill="#243947"/>
<path d="M5.13244 0.765443L3.04263 1.75309C5.70976 3.07949 11.0898 5.76093 11.273 5.87544C11.502 6.01858 11.4305 6.44799 11.2444 6.53387C11.0955 6.60258 5.70499 9.32982 3.02832 10.6849L5.11812 11.7298C7.93316 10.3222 13.5947 7.48717 13.7207 7.40701C13.8781 7.30681 14.0928 7.33544 14.236 7.40701C14.3505 7.46426 19.9805 10.3318 22.7813 11.7584L24.914 10.6992C22.3184 9.39184 17.0615 6.74285 16.7981 6.60544C16.4689 6.43368 16.5118 6.03289 16.7981 5.88975C17.0271 5.77524 22.3518 3.12244 24.9856 1.81034L22.7813 0.751129C20.0092 2.16819 14.4249 5.02234 14.2646 5.1025C14.0642 5.2027 13.9211 5.17407 13.7779 5.1025C13.6634 5.04525 7.96656 2.18727 5.13244 0.765443Z" fill="#01D8A2"/>
<path d="M2.52734 3.11315V2.39746L10.2281 6.23354L9.56847 6.60569L2.52734 3.11315Z" fill="#01D8A2"/>
<path d="M25.4575 3.08446V2.36877L17.7567 6.20485L18.4164 6.57701L25.4575 3.08446Z" fill="#0AAB82"/>
<path d="M2.55615 11.9592V11.3008L4.74615 12.4315V13.0757L2.55615 11.9592Z" fill="#00D8A2"/>
<path d="M5.47656 13.0755V12.4457L13.6497 8.30905V8.99611L5.47656 13.0755Z" fill="#0AAB82"/>
<path d="M14.3652 8.98146V8.2944L22.4382 12.3881V13.0895L14.3652 8.98146Z" fill="#02D8A4"/>
<path d="M23.1533 13.0898V12.4028L25.4292 11.2434V11.9304L23.1533 13.0898Z" fill="#0AAB82"/>
<path d="M1.31104 37.8812L1.31104 22.5226L26.6893 22.5369V37.8669C26.6893 38.3965 26.3028 39.0406 25.7016 39.0263C25.1004 39.012 2.9428 39.0263 2.39888 39.0263C1.85496 39.0263 1.31104 38.511 1.31104 37.8812Z" fill="white"/>
<path fill-rule="evenodd" clip-rule="evenodd" d="M22.9531 31.125L23.4254 31.3827C23.3157 31.5878 22.9445 31.9982 22.3376 31.9982C21.579 31.9982 21.1353 31.4829 21.1353 30.6956C21.1353 29.9084 21.7364 29.5219 22.309 29.5219C22.8815 29.5219 23.54 29.9084 23.4827 30.8244H21.6935C21.7078 31.0344 21.8567 31.4542 22.3376 31.4542C22.7956 31.4542 22.9531 31.125 22.9531 31.125ZM21.7221 30.438H22.8815C22.8672 30.2996 22.7327 30.0229 22.309 30.0229C21.8853 30.0229 21.7412 30.2996 21.7221 30.438Z" fill="#243947"/>
<path d="M24.5138 31.9123H23.9126V29.5791H24.4565V29.937C24.5472 29.7986 24.8 29.5219 25.0863 29.5219C25.3726 29.5219 25.511 29.5887 25.5444 29.6221L25.3153 30.0944C25.2629 30.0801 25.1092 30.0601 24.9146 30.0944C24.6712 30.1374 24.5138 30.395 24.5138 30.5668V31.9123Z" fill="#243947"/>
<path fill-rule="evenodd" clip-rule="evenodd" d="M20.2915 31.125L20.7638 31.3827C20.6541 31.5878 20.2829 31.9982 19.676 31.9982C18.9174 31.9982 18.4736 31.4829 18.4736 30.6956C18.4736 29.9084 19.0748 29.5219 19.6474 29.5219C20.2199 29.5219 20.8783 29.9084 20.8211 30.8244H19.0319C19.0462 31.0344 19.195 31.4542 19.676 31.4542C20.134 31.4542 20.2915 31.125 20.2915 31.125ZM19.0605 30.438H20.2199C20.2056 30.2996 20.071 30.0229 19.6474 30.0229C19.2237 30.0229 19.0796 30.2996 19.0605 30.438Z" fill="#243947"/>
<path d="M16.5986 30.0947V29.5937H16.9851V28.8637H17.572V29.5937H18.1588V30.0947H17.572V31.0823C17.572 31.3114 17.7437 31.4259 17.8582 31.4259C17.9498 31.4259 18.0491 31.3972 18.0873 31.3829L18.2161 31.9125C18.0873 31.9984 17.7475 32.045 17.5004 31.9698C17.1712 31.8696 16.9851 31.6119 16.9851 31.2112V30.0947H16.5986Z" fill="#243947"/>
<path fill-rule="evenodd" clip-rule="evenodd" d="M15.7817 31.125L16.2541 31.3827C16.1443 31.5878 15.7731 31.9982 15.1662 31.9982C14.4076 31.9982 13.9639 31.4829 13.9639 30.6956C13.9639 29.9084 14.565 29.5219 15.1376 29.5219C15.7101 29.5219 16.3686 29.9084 16.3113 30.8244H14.5221C14.5364 31.0344 14.6853 31.4542 15.1662 31.4542C15.6243 31.4542 15.7817 31.125 15.7817 31.125ZM14.5507 30.438H15.7101C15.6958 30.2996 15.5613 30.0229 15.1376 30.0229C14.7139 30.0229 14.5698 30.2996 14.5507 30.438Z" fill="#243947"/>
<path fill-rule="evenodd" clip-rule="evenodd" d="M11.2021 32.9428H11.789V31.626C11.8606 31.7405 12.061 31.9981 12.519 31.9981C12.9914 31.9981 13.6212 31.6117 13.6212 30.7242C13.6212 29.8368 13.02 29.5075 12.519 29.5075C12.1182 29.5075 11.8463 29.7222 11.7604 29.8654V29.5791H11.2021V32.9428ZM11.7747 30.7385C11.7747 31.0677 11.9608 31.4256 12.4188 31.4256C12.8769 31.4256 13.0057 31.0248 13.0057 30.7528C13.0057 30.4809 12.8482 30.0801 12.4188 30.0801C11.9894 30.0801 11.7747 30.3807 11.7747 30.7385Z" fill="#243947"/>
<path fill-rule="evenodd" clip-rule="evenodd" d="M8.33887 32.9428H8.92573V31.626C8.9973 31.7405 9.19769 31.9981 9.65573 31.9981C10.1281 31.9981 10.7579 31.6117 10.7579 30.7242C10.7579 29.8368 10.1567 29.5075 9.65573 29.5075C9.25495 29.5075 8.98298 29.7222 8.8971 29.8654V29.5791H8.33887V32.9428ZM8.91142 30.7385C8.91142 31.0677 9.09749 31.4256 9.55553 31.4256C10.0136 31.4256 10.1424 31.0248 10.1424 30.7528C10.1424 30.4809 9.98495 30.0801 9.55553 30.0801C9.12612 30.0801 8.91142 30.3807 8.91142 30.7385Z" fill="#243947"/>
<path d="M6.1627 29.5652H5.56152V31.1397C5.56152 31.698 5.94799 32.0129 6.46329 32.0129C6.87552 32.0129 7.12172 31.698 7.19329 31.5405V31.9127H7.73721V29.5652H7.15035V30.9107C7.06446 31.2256 6.84976 31.426 6.60643 31.426C6.36309 31.426 6.1627 31.2685 6.1627 30.968V29.5652Z" fill="#243947"/>
<path fill-rule="evenodd" clip-rule="evenodd" d="M2.8999 31.9123V28.5343H4.24539C4.68912 28.5343 5.24735 28.8778 5.24735 29.5792C5.24735 30.2806 4.68912 30.6527 4.24539 30.6527H3.52971V31.9123H2.8999ZM3.54402 30.0516V29.1355H4.21676C4.48873 29.1355 4.61755 29.3216 4.61755 29.5935C4.61755 29.8655 4.47441 30.0516 4.21676 30.0516H3.54402Z" fill="#243947"/>
<path d="M1.31104 20.2755V21.9502L26.7036 21.9359V20.2755C26.7036 19.889 26.2885 19.2592 25.7016 19.2592C25.1148 19.2592 2.9428 19.2735 2.38456 19.2592C1.82633 19.2449 1.31104 19.7602 1.31104 20.2755Z" fill="#DFDEDF"/>
<path d="M3.38647 20.6187C3.38647 20.8638 3.18781 21.0625 2.94275 21.0625C2.69769 21.0625 2.49902 20.8638 2.49902 20.6187C2.49902 20.3737 2.69769 20.175 2.94275 20.175C3.18781 20.175 3.38647 20.3737 3.38647 20.6187Z" fill="#243947"/>
<path d="M6.30647 20.6187C6.30647 20.8638 6.10781 21.0625 5.86275 21.0625C5.61769 21.0625 5.41902 20.8638 5.41902 20.6187C5.41902 20.3737 5.61769 20.175 5.86275 20.175C6.10781 20.175 6.30647 20.3737 6.30647 20.6187Z" fill="#243947"/>
<path d="M4.84647 20.6187C4.84647 20.8638 4.64781 21.0625 4.40275 21.0625C4.15769 21.0625 3.95902 20.8638 3.95902 20.6187C3.95902 20.3737 4.15769 20.175 4.40275 20.175C4.64781 20.175 4.84647 20.3737 4.84647 20.6187Z" fill="#243947"/>
</svg>
