<svg width="143" height="24" viewBox="0 0 143 24" fill="none" xmlns="http://www.w3.org/2000/svg">
<rect width="143" height="24" rx="12" fill="#00A1B3"/>
<path d="M33.061 17.21C32.0577 17.21 31.2107 16.9883 30.52 16.545C29.8293 16.097 29.3067 15.4787 28.952 14.69C28.5973 13.9013 28.42 12.9913 28.42 11.96C28.42 10.9287 28.5973 10.0187 28.952 9.23C29.3067 8.44133 29.8293 7.82533 30.52 7.382C31.2107 6.934 32.0577 6.71 33.061 6.71C34.069 6.71 34.916 6.934 35.602 7.382C36.2927 7.82533 36.8153 8.44133 37.17 9.23C37.5293 10.0187 37.709 10.9287 37.709 11.96C37.709 12.9913 37.5293 13.9013 37.17 14.69C36.8153 15.4787 36.2927 16.097 35.602 16.545C34.916 16.9883 34.069 17.21 33.061 17.21ZM33.061 16.223C33.8497 16.223 34.5077 16.0433 35.035 15.684C35.5623 15.3247 35.9567 14.8253 36.218 14.186C36.484 13.542 36.617 12.8 36.617 11.96C36.617 11.12 36.484 10.3803 36.218 9.741C35.9567 9.10167 35.5623 8.60233 35.035 8.243C34.5077 7.88367 33.8497 7.70167 33.061 7.697C32.2723 7.697 31.6167 7.87667 31.094 8.236C30.5713 8.59533 30.177 9.097 29.911 9.741C29.6497 10.3803 29.5167 11.12 29.512 11.96C29.5073 12.8 29.6357 13.5397 29.897 14.179C30.163 14.8137 30.5597 15.313 31.087 15.677C31.6143 16.0363 32.2723 16.2183 33.061 16.223ZM39.8599 17V8.88C39.8599 8.684 39.8692 8.49033 39.8879 8.299C39.9112 8.10767 39.9555 7.92567 40.0209 7.753C40.0862 7.57567 40.1889 7.41233 40.3289 7.263C40.4829 7.095 40.6509 6.97367 40.8329 6.899C41.0149 6.81967 41.2039 6.76833 41.3999 6.745C41.6005 6.72167 41.7965 6.71 41.9879 6.71H42.9539V7.578H42.0579C41.6659 7.578 41.3719 7.67367 41.1759 7.865C40.9845 8.05633 40.8889 8.35733 40.8889 8.768V17H39.8599ZM38.5509 10.322V9.44H42.9539V10.322H38.5509ZM44.1719 17V8.88C44.1719 8.684 44.1812 8.49033 44.1999 8.299C44.2232 8.10767 44.2675 7.92567 44.3329 7.753C44.3982 7.57567 44.5009 7.41233 44.6409 7.263C44.7949 7.095 44.9629 6.97367 45.1449 6.899C45.3269 6.81967 45.5159 6.76833 45.7119 6.745C45.9125 6.72167 46.1085 6.71 46.2999 6.71H47.2659V7.578H46.3699C45.9779 7.578 45.6839 7.67367 45.4879 7.865C45.2965 8.05633 45.2009 8.35733 45.2009 8.768V17H44.1719ZM42.8629 10.322V9.44H47.2659V10.322H42.8629ZM48.7255 8.005V6.85H49.7545V8.005H48.7255ZM48.7255 17V9.44H49.7545V17H48.7255ZM54.989 17.21C54.2284 17.21 53.5844 17.0397 53.057 16.699C52.5297 16.3583 52.1284 15.8893 51.853 15.292C51.5824 14.69 51.4424 13.9993 51.433 13.22C51.4424 12.4267 51.587 11.7313 51.867 11.134C52.147 10.532 52.5507 10.0653 53.078 9.734C53.6054 9.398 54.2447 9.23 54.996 9.23C55.7614 9.23 56.4264 9.41667 56.991 9.79C57.5604 10.1633 57.95 10.6743 58.16 11.323L57.152 11.645C56.9747 11.1923 56.6924 10.8423 56.305 10.595C55.9224 10.343 55.4837 10.217 54.989 10.217C54.4337 10.217 53.974 10.3453 53.61 10.602C53.246 10.854 52.9754 11.2063 52.798 11.659C52.6207 12.1117 52.5297 12.632 52.525 13.22C52.5344 14.1253 52.7444 14.8533 53.155 15.404C53.5657 15.95 54.177 16.223 54.989 16.223C55.5024 16.223 55.9387 16.1063 56.298 15.873C56.662 15.635 56.9374 15.2897 57.124 14.837L58.16 15.145C57.88 15.817 57.4694 16.3303 56.928 16.685C56.3867 17.035 55.7404 17.21 54.989 17.21ZM59.5399 8.005V6.85H60.5689V8.005H59.5399ZM59.5399 17V9.44H60.5689V17H59.5399ZM64.8305 17.21C64.2612 17.21 63.7828 17.1073 63.3955 16.902C63.0128 16.6967 62.7258 16.4237 62.5345 16.083C62.3432 15.7423 62.2475 15.3713 62.2475 14.97C62.2475 14.5593 62.3292 14.2093 62.4925 13.92C62.6605 13.626 62.8868 13.3857 63.1715 13.199C63.4608 13.0123 63.7945 12.87 64.1725 12.772C64.5552 12.6787 64.9775 12.597 65.4395 12.527C65.9062 12.4523 66.3612 12.3893 66.8045 12.338C67.2525 12.282 67.6445 12.2283 67.9805 12.177L67.6165 12.401C67.6305 11.6543 67.4858 11.1013 67.1825 10.742C66.8792 10.3827 66.3518 10.203 65.6005 10.203C65.0825 10.203 64.6438 10.3197 64.2845 10.553C63.9298 10.7863 63.6802 11.155 63.5355 11.659L62.5345 11.365C62.7072 10.6883 63.0548 10.1633 63.5775 9.79C64.1002 9.41667 64.7792 9.23 65.6145 9.23C66.3052 9.23 66.8908 9.36067 67.3715 9.622C67.8568 9.87867 68.1998 10.252 68.4005 10.742C68.4938 10.9613 68.5545 11.2063 68.5825 11.477C68.6105 11.7477 68.6245 12.023 68.6245 12.303V17H67.7075V15.103L67.9735 15.215C67.7168 15.8637 67.3178 16.3583 66.7765 16.699C66.2352 17.0397 65.5865 17.21 64.8305 17.21ZM64.9495 16.321C65.4302 16.321 65.8502 16.2347 66.2095 16.062C66.5688 15.8893 66.8582 15.6537 67.0775 15.355C67.2968 15.0517 67.4392 14.711 67.5045 14.333C67.5605 14.0903 67.5908 13.8243 67.5955 13.535C67.6002 13.241 67.6025 13.0217 67.6025 12.877L67.9945 13.08C67.6445 13.1267 67.2642 13.1733 66.8535 13.22C66.4475 13.2667 66.0462 13.3203 65.6495 13.381C65.2575 13.4417 64.9028 13.514 64.5855 13.598C64.3708 13.6587 64.1632 13.745 63.9625 13.857C63.7618 13.9643 63.5962 14.109 63.4655 14.291C63.3395 14.473 63.2765 14.6993 63.2765 14.97C63.2765 15.1893 63.3302 15.4017 63.4375 15.607C63.5495 15.8123 63.7268 15.9827 63.9695 16.118C64.2168 16.2533 64.5435 16.321 64.9495 16.321ZM70.5868 17V6.71H71.6158V17H70.5868ZM79.3381 17.203C78.4514 17.203 77.7211 17.0117 77.1471 16.629C76.5778 16.2463 76.2278 15.7143 76.0971 15.033L77.1471 14.858C77.2591 15.2873 77.5134 15.6303 77.9101 15.887C78.3114 16.139 78.8061 16.265 79.3941 16.265C79.9681 16.265 80.4208 16.146 80.7521 15.908C81.0834 15.6653 81.2491 15.3363 81.2491 14.921C81.2491 14.6877 81.1954 14.4987 81.0881 14.354C80.9854 14.2047 80.7731 14.067 80.4511 13.941C80.1291 13.815 79.6484 13.6657 79.0091 13.493C78.3231 13.3063 77.7864 13.1197 77.3991 12.933C77.0118 12.7463 76.7364 12.5317 76.5731 12.289C76.4098 12.0417 76.3281 11.7407 76.3281 11.386C76.3281 10.9567 76.4494 10.581 76.6921 10.259C76.9348 9.93233 77.2708 9.68033 77.7001 9.503C78.1294 9.321 78.6288 9.23 79.1981 9.23C79.7674 9.23 80.2761 9.32333 80.7241 9.51C81.1768 9.692 81.5408 9.94867 81.8161 10.28C82.0914 10.6113 82.2548 10.9963 82.3061 11.435L81.2561 11.624C81.1861 11.1807 80.9644 10.8307 80.5911 10.574C80.2224 10.3127 79.7534 10.1773 79.1841 10.168C78.6474 10.154 78.2111 10.2567 77.8751 10.476C77.5391 10.6907 77.3711 10.9777 77.3711 11.337C77.3711 11.5377 77.4318 11.7103 77.5531 11.855C77.6744 11.995 77.8938 12.128 78.2111 12.254C78.5331 12.38 78.9904 12.5177 79.5831 12.667C80.2784 12.8443 80.8244 13.031 81.2211 13.227C81.6178 13.423 81.9001 13.654 82.0681 13.92C82.2361 14.186 82.3201 14.515 82.3201 14.907C82.3201 15.621 82.0541 16.1833 81.5221 16.594C80.9948 17 80.2668 17.203 79.3381 17.203ZM87.0296 17.21C86.2782 17.21 85.6366 17.0397 85.1046 16.699C84.5726 16.3583 84.1642 15.887 83.8796 15.285C83.5949 14.683 83.4526 13.9923 83.4526 13.213C83.4526 12.4197 83.5972 11.7243 83.8866 11.127C84.1759 10.5297 84.5866 10.0653 85.1186 9.734C85.6552 9.398 86.2922 9.23 87.0296 9.23C87.7856 9.23 88.4296 9.40033 88.9616 9.741C89.4982 10.077 89.9066 10.546 90.1866 11.148C90.4712 11.7453 90.6136 12.4337 90.6136 13.213C90.6136 14.0063 90.4712 14.704 90.1866 15.306C89.9019 15.9033 89.4912 16.37 88.9546 16.706C88.4179 17.042 87.7762 17.21 87.0296 17.21ZM87.0296 16.223C87.8696 16.223 88.4949 15.9453 88.9056 15.39C89.3162 14.83 89.5216 14.1043 89.5216 13.213C89.5216 12.2983 89.3139 11.5703 88.8986 11.029C88.4879 10.4877 87.8649 10.217 87.0296 10.217C86.4649 10.217 85.9982 10.3453 85.6296 10.602C85.2656 10.854 84.9926 11.2063 84.8106 11.659C84.6332 12.107 84.5446 12.625 84.5446 13.213C84.5446 14.123 84.7546 14.8533 85.1746 15.404C85.5946 15.95 86.2129 16.223 87.0296 16.223ZM92.9067 17V8.88C92.9067 8.684 92.9161 8.49033 92.9347 8.299C92.9581 8.10767 93.0024 7.92567 93.0677 7.753C93.1331 7.57567 93.2357 7.41233 93.3757 7.263C93.5297 7.095 93.6977 6.97367 93.8797 6.899C94.0617 6.81967 94.2507 6.76833 94.4467 6.745C94.6474 6.72167 94.8434 6.71 95.0347 6.71H96.0007V7.578H95.1047C94.7127 7.578 94.4187 7.67367 94.2227 7.865C94.0314 8.05633 93.9357 8.35733 93.9357 8.768V17H92.9067ZM91.5977 10.322V9.44H96.0007V10.322H91.5977ZM101.237 17C100.812 17.0887 100.392 17.1237 99.9766 17.105C99.566 17.0863 99.1973 16.9977 98.8706 16.839C98.5486 16.6803 98.3036 16.433 98.1356 16.097C98.0003 15.817 97.9256 15.5347 97.9116 15.25C97.9023 14.9607 97.8976 14.6317 97.8976 14.263V7.34H98.9196V14.221C98.9196 14.5383 98.922 14.8043 98.9266 15.019C98.936 15.229 98.985 15.4157 99.0736 15.579C99.2416 15.8917 99.5076 16.0783 99.8716 16.139C100.24 16.1997 100.695 16.1857 101.237 16.097V17ZM96.2806 10.322V9.44H101.237V10.322H96.2806ZM104.336 17L102.026 9.433L103.055 9.44L104.847 15.313L106.646 9.44H107.584L109.383 15.313L111.189 9.44H112.211L109.901 17H109.005L107.115 10.98L105.232 17H104.336ZM115.211 17.21C114.642 17.21 114.164 17.1073 113.776 16.902C113.394 16.6967 113.107 16.4237 112.915 16.083C112.724 15.7423 112.628 15.3713 112.628 14.97C112.628 14.5593 112.71 14.2093 112.873 13.92C113.041 13.626 113.268 13.3857 113.552 13.199C113.842 13.0123 114.175 12.87 114.553 12.772C114.936 12.6787 115.358 12.597 115.82 12.527C116.287 12.4523 116.742 12.3893 117.185 12.338C117.633 12.282 118.025 12.2283 118.361 12.177L117.997 12.401C118.011 11.6543 117.867 11.1013 117.563 10.742C117.26 10.3827 116.733 10.203 115.981 10.203C115.463 10.203 115.025 10.3197 114.665 10.553C114.311 10.7863 114.061 11.155 113.916 11.659L112.915 11.365C113.088 10.6883 113.436 10.1633 113.958 9.79C114.481 9.41667 115.16 9.23 115.995 9.23C116.686 9.23 117.272 9.36067 117.752 9.622C118.238 9.87867 118.581 10.252 118.781 10.742C118.875 10.9613 118.935 11.2063 118.963 11.477C118.991 11.7477 119.005 12.023 119.005 12.303V17H118.088V15.103L118.354 15.215C118.098 15.8637 117.699 16.3583 117.157 16.699C116.616 17.0397 115.967 17.21 115.211 17.21ZM115.33 16.321C115.811 16.321 116.231 16.2347 116.59 16.062C116.95 15.8893 117.239 15.6537 117.458 15.355C117.678 15.0517 117.82 14.711 117.885 14.333C117.941 14.0903 117.972 13.8243 117.976 13.535C117.981 13.241 117.983 13.0217 117.983 12.877L118.375 13.08C118.025 13.1267 117.645 13.1733 117.234 13.22C116.828 13.2667 116.427 13.3203 116.03 13.381C115.638 13.4417 115.284 13.514 114.966 13.598C114.752 13.6587 114.544 13.745 114.343 13.857C114.143 13.9643 113.977 14.109 113.846 14.291C113.72 14.473 113.657 14.6993 113.657 14.97C113.657 15.1893 113.711 15.4017 113.818 15.607C113.93 15.8123 114.108 15.9827 114.35 16.118C114.598 16.2533 114.924 16.321 115.33 16.321ZM120.828 17V9.44H121.752V11.26L121.57 11.022C121.654 10.798 121.763 10.5927 121.899 10.406C122.034 10.2147 122.181 10.0583 122.34 9.937C122.536 9.76433 122.764 9.63367 123.026 9.545C123.287 9.45167 123.551 9.398 123.817 9.384C124.083 9.36533 124.325 9.384 124.545 9.44V10.406C124.269 10.336 123.968 10.3197 123.642 10.357C123.315 10.3943 123.014 10.525 122.739 10.749C122.487 10.945 122.298 11.1807 122.172 11.456C122.046 11.7267 121.962 12.016 121.92 12.324C121.878 12.6273 121.857 12.9283 121.857 13.227V17H120.828ZM128.935 17.21C128.198 17.21 127.558 17.0467 127.017 16.72C126.48 16.3933 126.063 15.9337 125.764 15.341C125.465 14.7483 125.316 14.053 125.316 13.255C125.316 12.429 125.463 11.715 125.757 11.113C126.051 10.511 126.464 10.0467 126.996 9.72C127.533 9.39333 128.165 9.23 128.893 9.23C129.64 9.23 130.277 9.40267 130.804 9.748C131.331 10.0887 131.73 10.5787 132.001 11.218C132.272 11.8573 132.395 12.6203 132.372 13.507H131.322V13.143C131.303 12.163 131.091 11.4233 130.685 10.924C130.284 10.4247 129.696 10.175 128.921 10.175C128.109 10.175 127.486 10.4387 127.052 10.966C126.623 11.4933 126.408 12.2447 126.408 13.22C126.408 14.172 126.623 14.9117 127.052 15.439C127.486 15.9617 128.1 16.223 128.893 16.223C129.434 16.223 129.906 16.0993 130.307 15.852C130.713 15.6 131.033 15.2383 131.266 14.767L132.225 15.138C131.926 15.796 131.485 16.307 130.902 16.671C130.323 17.0303 129.668 17.21 128.935 17.21ZM126.044 13.507V12.646H131.819V13.507H126.044Z" fill="white"/>
<path fill-rule="evenodd" clip-rule="evenodd" d="M15.5512 9.05069C18.6268 9.05069 21.1398 11.5207 21.1398 14.5438C21.1398 17.53 18.6268 20 15.5512 20C12.4755 20 10 17.53 10 14.5438C10 11.5207 12.4755 9.05069 15.5512 9.05069ZM11.3878 9.97235C11.3878 9.97235 11.7254 9.67742 12.0254 9.45622C12.3255 9.23502 12.6631 9.05069 12.6631 9.05069C12.6631 9.05069 12.7006 6.39631 12.6631 5.99078C12.6631 5.62212 13.0006 5.29032 13.4132 5.29032C13.8633 5.29032 17.3515 5.29032 17.6891 5.29032C18.0642 5.29032 18.4393 5.62212 18.4393 6.06452C18.4393 6.50691 18.4393 7.24424 18.4393 7.24424L19.752 7.28111C19.752 7.28111 19.752 6.80184 19.752 5.99078C19.752 5.14286 19.0394 4 17.6891 4C16.3013 4 14.9885 4 13.5632 4C12.1004 4 11.3503 5.06912 11.3503 6.02765C11.3503 7.02304 11.3878 9.97235 11.3878 9.97235ZM15.5512 11.2627C17.389 11.2627 18.8894 12.7373 18.8894 14.5438C18.8894 16.3134 17.389 17.788 15.5512 17.788C13.7508 17.788 12.2505 16.3134 12.2505 14.5438C12.2505 12.7373 13.7508 11.2627 15.5512 11.2627ZM15.5512 12.7005C16.1888 12.7005 16.7139 13.1797 16.7139 13.8065C16.7139 14.1751 16.4889 14.5438 16.2263 14.7281V16.3502H14.9135V14.7281C14.6135 14.5438 14.4259 14.1751 14.4259 13.8065C14.4259 13.1797 14.951 12.7005 15.5512 12.7005ZM15.5512 10.341C17.9142 10.341 19.8271 12.2212 19.8271 14.5438C19.8271 16.8295 17.9142 18.7097 15.5512 18.7097C13.1882 18.7097 11.2753 16.8295 11.2753 14.5438C11.2753 12.2212 13.1882 10.341 15.5512 10.341Z" fill="white"/>
</svg>
