<svg width="20" height="20" viewBox="0 0 20 20" fill="none" xmlns="http://www.w3.org/2000/svg">
<path fill-rule="evenodd" clip-rule="evenodd" d="M2.85693 9.99956C2.85693 9.467 3.28866 9.03528 3.82122 9.03528H15.2498C15.7824 9.03528 16.2141 9.467 16.2141 9.99956C16.2141 10.5321 15.7824 10.9638 15.2498 10.9638H3.82122C3.28866 10.9638 2.85693 10.5321 2.85693 9.99956Z" fill="#333333"/>
<path fill-rule="evenodd" clip-rule="evenodd" d="M9.06808 2.88915C9.44465 2.51258 10.0552 2.51258 10.4318 2.88915L16.8604 9.31772C17.2369 9.6943 17.2369 10.3049 16.8604 10.6814L10.4318 17.11C10.0552 17.4866 9.44465 17.4866 9.06808 17.11C8.6915 16.7334 8.6915 16.1229 9.06808 15.7463L14.8148 9.99958L9.06808 4.25286C8.6915 3.87628 8.6915 3.26573 9.06808 2.88915Z" fill="#333333"/>
</svg>
