<svg width="50" height="50" viewBox="0 0 50 50" fill="none" xmlns="http://www.w3.org/2000/svg">
<rect width="50" height="50" fill="#F7DF1D"/>
<path d="M43.9613 30.6708C43.6151 29.7805 42.1791 28 39.205 28C35.4875 28 34.0661 30.4527 34.1207 32.5785C34.1754 34.7042 35.2141 36.3393 37.4009 37.2659C37.6492 37.3712 37.8954 37.4729 38.1368 37.5726C40.021 38.3509 41.6105 39.0075 41.6105 40.2637C41.6105 41.6809 39.9704 41.8989 39.3144 41.8989C38.6583 41.8989 37.6743 41.8444 36.8542 41.0813C36.1982 40.4709 35.8884 40.0639 35.8155 39.9367L33.1367 41.5174C33.5558 42.662 35.3781 44.9512 39.3144 44.9512C44.2346 44.9512 45 41.7354 45 40.2637C45 38.7921 44.7813 36.7209 41.3371 35.2492C37.8929 33.7776 37.5103 33.3415 37.5103 32.4149C37.5103 31.4884 38.1663 30.8888 39.4784 30.9433C40.6811 30.9933 41.3371 32.3604 41.3371 32.3604L43.9613 30.6708Z" fill="black"/>
<path d="M27.779 28.1635H31.2232V40.2092C31.2232 42.989 29.4738 44.9512 25.9749 44.9512C23.1759 44.9512 21.492 42.9527 21 41.9534L23.7335 40.2092C23.9522 40.7906 24.7066 41.9534 25.9749 41.9534C27.5604 41.9534 27.779 40.6998 27.779 40.3728V28.1635Z" fill="black"/>
</svg>
