<svg width="34" height="34" viewBox="0 0 34 34" fill="none" xmlns="http://www.w3.org/2000/svg">
<rect y="0.333313" width="33.3333" height="33.3333" fill="#F7DF1D"/>
<path d="M29.3075 20.7805C29.0767 20.187 28.1194 19 26.1367 19C23.6583 19 22.7107 20.6352 22.7472 22.0523C22.7836 23.4695 23.4761 24.5596 24.9339 25.1773C25.0995 25.2474 25.2636 25.3152 25.4245 25.3817C26.6807 25.9006 27.7403 26.3383 27.7403 27.1758C27.7403 28.1206 26.6469 28.2659 26.2096 28.2659C25.7722 28.2659 25.1162 28.2296 24.5695 27.7209C24.1321 27.3139 23.9256 27.0426 23.877 26.9578L22.0911 28.0116C22.3705 28.7747 23.5854 30.3008 26.2096 30.3008C29.4897 30.3008 30 28.1569 30 27.1758C30 26.1947 29.8542 24.8139 27.5581 23.8328C25.262 22.8517 25.0068 22.561 25.0068 21.9433C25.0068 21.3256 25.4442 20.9259 26.3189 20.9622C27.1207 20.9955 27.5581 21.907 27.5581 21.907L29.3075 20.7805Z" fill="black"/>
<path d="M18.5194 19.109H20.8155V27.1395C20.8155 28.9927 19.6492 30.3008 17.3166 30.3008C15.4506 30.3008 14.328 28.9685 14 28.3023L15.8223 27.1395C15.9681 27.5271 16.4711 28.3023 17.3166 28.3023C18.3736 28.3023 18.5194 27.4665 18.5194 27.2485V19.109Z" fill="black"/>
</svg>
